# xmcd
#
# Track frame offsets:
#	150
#	9500
#	92531
#	97968
#	105404
#	160496
#	176089
#	221085
#	273828
#
# Disc length: 4168 seconds
#
# Revision: 1
# Processed by: cddbd v1.5.2PL0 Copyright (c) Steve Scherf et al.
# Submitted via: audiograbber 1.83.01
#
DISCID=6c104609
DTITLE=Grateful Dead - 73-09-07A Nassau Veterans Memorial Coliseum, Uniondale N
DTITLE=Y
DYEAR=1900
DGENRE=
TTITLE0=Crowd and Tuning
TTITLE1=Playing In The Band
TTITLE2=Crowd and Tuning, "Move Back"
TTITLE3=Beer Barrel Polka Tuning
TTITLE4=Here Comes Sunshine
TTITLE5=Me and My Uncle
TTITLE6=Loser
TTITLE7=Let It Grow
TTITLE8=Stella Blue
EXTD=
EXTT0=
EXTT1=
EXTT2=
EXTT3=
EXTT4=
EXTT5=
EXTT6=
EXTT7=
EXTT8=
PLAYORDER=
